<?xml version="1.0" encoding="UTF-8"?>
<svg width="24px" height="24px" viewBox="0 0 24 24" version="1.1" xmlns="http://www.w3.org/2000/svg" xmlns:xlink="http://www.w3.org/1999/xlink">
    <!-- Generator: Sketch 51.3 (57544) - http://www.bohemiancoding.com/sketch -->
    <title>Icon/Calendar</title>
    <desc>Created with Sketch.</desc>
    <defs></defs>
    <g id="Icon/Calendar" stroke="none" stroke-width="1" fill="none" fill-rule="evenodd">
        <rect id="Rectangle-28" x="0" y="0" width="24" height="24"></rect>
        <path d="M9,3 L15,3 L15,2 C15,1.44771525 15.4477153,1 16,1 C16.5522847,1 17,1.44771525 17,2 L17,3 L19.0049107,3 C20.6592161,3 22,4.3405012 22,5.99508929 L22,20.0049107 C22,21.6592161 20.6594988,23 19.0049107,23 L4.99508929,23 C3.34078395,23 2,21.6594988 2,20.0049107 L2,5.99508929 C2,4.34078395 3.3405012,3 4.99508929,3 L7,3 L7,2 C7,1.44771525 7.44771525,1 8,1 C8.55228475,1 9,1.44771525 9,2 L9,3 Z M20,11 L4,11 L4,20.0049107 C4,20.5548349 4.44525903,21 4.99508929,21 L19.0049107,21 C19.5548349,21 20,20.554741 20,20.0049107 L20,11 Z M9,5 L9,6 C9,6.55228475 8.55228475,7 8,7 C7.44771525,7 7,6.55228475 7,6 L7,5 L4.99508929,5 C4.44516513,5 4,5.44525903 4,5.99508929 L4,9 L20,9 L20,5.99508929 C20,5.44516513 19.554741,5 19.0049107,5 L17,5 L17,6 C17,6.55228475 16.5522847,7 16,7 C15.4477153,7 15,6.55228475 15,6 L15,5 L9,5 Z" id="Combined-Shape" fill="#95A2C7"></path>
    </g>
</svg>