<?xml version="1.0" encoding="UTF-8"?>
<svg width="24px" height="24px" viewBox="0 0 24 24" version="1.1" xmlns="http://www.w3.org/2000/svg" xmlns:xlink="http://www.w3.org/1999/xlink">
    <!-- Generator: Sketch 51.3 (57544) - http://www.bohemiancoding.com/sketch -->
    <title>Icon/Menu</title>
    <desc>Created with Sketch.</desc>
    <defs></defs>
    <g id="Icon/Menu" stroke="none" stroke-width="1" fill="none" fill-rule="evenodd">
        <rect id="Rectangle-28" x="0" y="0" width="24" height="24"></rect>
        <path d="M3,13 L21,13 C21.5522847,13 22,12.5522847 22,12 C22,11.4477153 21.5522847,11 21,11 L3,11 C2.44771525,11 2,11.4477153 2,12 C2,12.5522847 2.44771525,13 3,13 Z" id="Shape" fill="#95A2C7" fill-rule="nonzero"></path>
        <path d="M3,7 L21,7 C21.5522847,7 22,6.55228475 22,6 C22,5.44771525 21.5522847,5 21,5 L3,5 C2.44771525,5 2,5.44771525 2,6 C2,6.55228475 2.44771525,7 3,7 Z" id="Shape" fill="#95A2C7" fill-rule="nonzero"></path>
        <path d="M3,19 L21,19 C21.5522847,19 22,18.5522847 22,18 C22,17.4477153 21.5522847,17 21,17 L3,17 C2.44771525,17 2,17.4477153 2,18 C2,18.5522847 2.44771525,19 3,19 Z" id="Shape" fill="#95A2C7" fill-rule="nonzero"></path>
    </g>
</svg>