<?xml version="1.0" encoding="UTF-8"?>
<svg width="14px" height="14px" viewBox="0 0 14 14" version="1.1" xmlns="http://www.w3.org/2000/svg" xmlns:xlink="http://www.w3.org/1999/xlink">
    <!-- Generator: Sketch 51.3 (57544) - http://www.bohemiancoding.com/sketch -->
    <title>Icon/Chevron Down Copy</title>
    <desc>Created with Sketch.</desc>
    <defs>
        <path d="M18.7,17.3 C19.1,17.7 19.1,18.3 18.7,18.7 C18.5,18.9 18.3,19 18,19 C17.7,19 17.5,18.9 17.3,18.7 L12,13.4 L6.7,18.7 C6.5,18.9 6.3,19 6,19 C5.7,19 5.5,18.9 5.3,18.7 C4.9,18.3 4.9,17.7 5.3,17.3 L10.6,12 L5.3,6.7 C4.9,6.3 4.9,5.7 5.3,5.3 C5.7,4.9 6.3,4.9 6.7,5.3 L12,10.6 L17.3,5.3 C17.7,4.9 18.3,4.9 18.7,5.3 C19.1,5.7 19.1,6.3 18.7,6.7 L13.4,12 L18.7,17.3 Z" id="path-1"></path>
    </defs>
    <g id="1st-Attempt" stroke="none" stroke-width="1" fill="none" fill-rule="evenodd">
        <g id="Desktop-HD---Lead---Pricing" transform="translate(-667.000000, -25.000000)">
            <g id="Group-3-Copy" transform="translate(510.000000, 0.000000)">
                <g id="Group-2" transform="translate(32.000000, 20.000000)">
                    <g id="Group-7">
                        <g id="Icon/Close" transform="translate(120.000000, 0.000000)">
                            <rect id="Rectangle-28" x="0" y="0" width="24" height="24"></rect>
                            <mask id="mask-2" fill="white">
                                <use xlink:href="#path-1"></use>
                            </mask>
                            <use id="Mask" fill="#95A2C7" fill-rule="nonzero" xlink:href="#path-1"></use>
                        </g>
                    </g>
                </g>
            </g>
        </g>
    </g>
</svg>