<?xml version="1.0" encoding="UTF-8"?>
<svg width="24px" height="24px" viewBox="0 0 24 24" version="1.1" xmlns="http://www.w3.org/2000/svg" xmlns:xlink="http://www.w3.org/1999/xlink">
    <!-- Generator: Sketch 51.3 (57544) - http://www.bohemiancoding.com/sketch -->
    <title>Icon/Plus</title>
    <desc>Created with Sketch.</desc>
    <defs>
        <path d="M18.5994949,17.1994949 C18.9994949,17.5994949 18.9994949,18.1994949 18.5994949,18.5994949 C18.3994949,18.7994949 18.1994949,18.8994949 17.8994949,18.8994949 C17.5994949,18.8994949 17.3994949,18.7994949 17.1994949,18.5994949 L11.8994949,13.2994949 L6.59949494,18.5994949 C6.39949494,18.7994949 6.19949494,18.8994949 5.89949494,18.8994949 C5.59949494,18.8994949 5.39949494,18.7994949 5.19949494,18.5994949 C4.79949494,18.1994949 4.79949494,17.5994949 5.19949494,17.1994949 L10.4994949,11.8994949 L5.19949494,6.59949494 C4.79949494,6.19949494 4.79949494,5.59949494 5.19949494,5.19949494 C5.59949494,4.79949494 6.19949494,4.79949494 6.59949494,5.19949494 L11.8994949,10.4994949 L17.1994949,5.19949494 C17.5994949,4.79949494 18.1994949,4.79949494 18.5994949,5.19949494 C18.9994949,5.59949494 18.9994949,6.19949494 18.5994949,6.59949494 L13.2994949,11.8994949 L18.5994949,17.1994949 Z" id="path-1"></path>
    </defs>
    <g id="Icon/Plus" stroke="none" stroke-width="1" fill="none" fill-rule="evenodd">
        <rect id="Rectangle-28" x="0" y="0" width="24" height="24"></rect>
        <mask id="mask-2" fill="white">
            <use xlink:href="#path-1"></use>
        </mask>
        <use id="Mask" fill="#FFFFFF" fill-rule="nonzero" transform="translate(11.899495, 11.899495) rotate(45.000000) translate(-11.899495, -11.899495) " xlink:href="#path-1"></use>
    </g>
</svg>